# xmcd
#
# Track frame offsets:
#	150
#	15540
#	31310
#	45497
#	56726
#	71223
#	79129
#	96731
#	102497
#	116326
#	136048
#	149242
#	167028
#	183676
#
# Disc length: 2783 seconds
#
# Revision: 0
# Processed by: cddbd v1.4PL0 Copyright (c) Steve Scherf et al.
# Submitted via: dBpowerAMP V4.0
#
DISCID=ce0add0e
DTITLE=Alison Krauss and Union Station - So Long, So Wrong
DYEAR=1997
DGENRE=Country
TTITLE0=So Long, So Wrong
TTITLE1=No Place To Hide
TTITLE2=Deeper Than Crying
TTITLE3=I Can Let Go Now
TTITLE4=The Road Is A Lover
TTITLE5=Lil' Liza Jane
TTITLE6=It Doesn't Matter
TTITLE7=Find My Way Back To My Heart
TTITLE8=I'll Remember Your Love In My Prayers
TTITLE9=Looking In The Eyes Of Love
TTITLE10=Pain Of A Troubled Life
TTITLE11=Happiness
TTITLE12=Blue Trail Of Sorrow
TTITLE13=There Is A Reason
EXTD=
EXTT0=
EXTT1=
EXTT2=
EXTT3=
EXTT4=
EXTT5=
EXTT6=
EXTT7=
EXTT8=
EXTT9=
EXTT10=
EXTT11=
EXTT12=
EXTT13=
PLAYORDER=
